<svg width="224" height="44" viewBox="0 0 224 44" fill="none" xmlns="http://www.w3.org/2000/svg">
<path d="M47.4941 18.949V18.1891C47.4941 14.4116 49.4624 11.0583 52.4357 9.13648C54.1124 8.0408 56.1248 7.39355 58.2919 7.39355C62.4272 7.39355 66.0478 9.76384 67.8371 13.2055L63.4102 15.3969C62.4272 13.5634 60.481 12.3329 58.2919 12.3329C55.0733 12.3329 52.4357 14.9705 52.4357 18.1891V18.949C52.4357 22.1698 55.0733 24.8073 58.2919 24.8073C60.0127 24.8073 61.5546 24.0695 62.6282 22.8612H58.0003V17.9218H69.0653V18.949C69.0653 20.3363 68.798 21.6528 68.3275 22.8612C66.7635 26.886 62.8513 29.7467 58.2897 29.7467C56.1204 29.7467 54.1102 29.0995 52.4335 28.0038C49.4602 26.0819 47.4919 22.7507 47.4919 18.949H47.4941Z" fill="white"/>
<path d="M77.5546 7.36963H82.4962V24.8077H94.9485V29.725H77.5568V7.36963H77.5546Z" fill="white"/>
<path d="M115.062 18.0547L112.87 22.3027L109.784 28.1831L108.98 29.725H103.436L104.24 28.1831L104.664 27.3569L106.811 23.2658L112.287 12.7133L115.059 7.36963L117.854 12.7133L123.33 23.2658L125.453 27.3569L125.901 28.1831L126.705 29.725H121.139L120.335 28.1831H113.047L114.834 23.2658H117.763L115.059 18.0569L115.062 18.0547Z" fill="white"/>
<path d="M152.366 22.3466L155.54 23.9106C153.729 27.3545 150.108 29.7225 145.973 29.7225C143.825 29.7225 141.815 29.0974 140.117 27.9796C138.082 26.6608 136.54 24.6705 135.756 22.3466C135.376 21.2752 135.197 20.1331 135.197 18.9491V18.1671C135.197 16.9831 135.376 15.8432 135.756 14.7696C136.538 12.4214 138.082 10.4554 140.117 9.11451C141.815 8.01883 143.828 7.37158 145.973 7.37158C150.108 7.37158 153.731 9.76396 155.54 13.2056L152.366 14.7696L151.113 15.3727C151 15.1496 150.868 14.9486 150.733 14.7696C149.66 13.294 147.939 12.311 145.97 12.311C144.002 12.311 142.281 13.294 141.21 14.7696C140.516 15.7305 140.114 16.8925 140.114 18.1671V18.9491C140.114 20.2237 140.516 21.3857 141.21 22.3466C142.284 23.8222 144.027 24.8052 145.97 24.8052C147.914 24.8052 149.66 23.8222 150.733 22.3466C150.868 22.1456 151 21.9445 151.113 21.7435L152.366 22.3466Z" fill="white"/>
<path d="M168.947 7.36963V29.725H164.029V7.36963H168.947Z" fill="white"/>
<path d="M182.358 21.0278V24.8053H195.526V29.7226H177.44V7.36719H195.526V12.3088H182.358V21.0278ZM186.025 16.0862H193.984V21.0278H184.237L186.025 16.0862Z" fill="white"/>
<path d="M204.015 7.36963H216.556C220.647 7.36963 224 10.7229 224 14.8141C224 18.1674 221.72 21.0281 218.656 21.9227L224 29.725H218.009L212.891 22.2364L212.69 21.9227H210.925L212.601 17.2948H216.558C217.921 17.2948 219.063 16.177 219.063 14.8141C219.063 13.4511 217.923 12.3112 216.558 12.3112H208.956V29.725H204.015V7.36963Z" fill="white"/>
<path d="M70.4062 43.7828H69.7015V38.1211H71.9768C72.5268 38.1211 72.9576 38.2846 73.2735 38.6115C73.5938 38.9473 73.7529 39.3427 73.7529 39.8265C73.7529 40.3102 73.5894 40.7145 73.2691 41.0414C72.9488 41.3684 72.5224 41.5318 71.9768 41.5318H70.4084V43.7828H70.4062ZM71.8906 40.9089C72.2264 40.9089 72.4981 40.8073 72.7036 40.604C72.9134 40.4008 73.0195 40.1446 73.0195 39.8243C73.0195 39.504 72.9134 39.2477 72.7036 39.0533C72.4981 38.8501 72.2242 38.7485 71.8906 38.7485H70.4062V40.9067H71.8906V40.9089Z" fill="white"/>
<path d="M80.8284 43.7828H79.9956L78.5553 41.5318H77.4265V43.7828H76.7218V38.1211H78.9971C79.5228 38.1211 79.9514 38.2779 80.2783 38.5894C80.6053 38.9009 80.7732 39.314 80.7732 39.8287C80.7732 40.3434 80.6296 40.7012 80.349 40.9884C80.0641 41.2844 79.7172 41.4391 79.3064 41.4788L80.8328 43.785L80.8284 43.7828ZM78.9087 40.9177C79.2445 40.9177 79.5162 40.8161 79.7217 40.6063C79.9315 40.403 80.0376 40.1468 80.0376 39.8265C80.0376 39.5061 79.9315 39.2499 79.7217 39.0555C79.5162 38.8523 79.2423 38.7507 78.9087 38.7507H77.4243V40.9155H78.9087V40.9177Z" fill="white"/>
<path d="M87.6234 43.7828H83.9166V38.1211H87.6234V38.7529H84.6213V40.5753H87.5659V41.2071H84.6213V43.1533H87.6234V43.785V43.7828Z" fill="white"/>
<path d="M96.3225 43.7828H95.6178V39.1262L93.6937 43.7828H93.4022L91.4869 39.1262V43.7828H90.7822V38.1211H91.7918L93.548 42.3823L95.3152 38.1211H96.3247V43.7828H96.3225Z" fill="white"/>
<path d="M100.387 43.7828H99.6824V38.1211H100.387V43.7828Z" fill="white"/>
<path d="M107.776 43.2679C107.383 43.681 106.811 43.8842 106.06 43.8842C105.309 43.8842 104.732 43.681 104.339 43.2679C103.946 42.8548 103.751 42.2937 103.751 41.5846V38.1187H104.456V41.5692C104.456 42.0905 104.593 42.5036 104.874 42.8084C105.15 43.1044 105.547 43.2524 106.062 43.2524C106.577 43.2524 106.974 43.1044 107.251 42.8084C107.527 42.5036 107.668 42.0927 107.668 41.5692V38.1187H108.373V41.5758C108.373 42.2915 108.174 42.8526 107.781 43.2657L107.776 43.2679Z" fill="white"/>
<path d="M117.269 43.7828H116.564V39.1262L114.64 43.7828H114.348L112.433 39.1262V43.7828H111.728V38.1211H112.738L114.494 42.3823L116.261 38.1211H117.271V43.7828H117.269Z" fill="white"/>
<path d="M133.929 43.7828H133.123L132.623 42.5281H129.805L129.306 43.7828H128.499L130.775 38.1211H131.647L133.929 43.7828ZM132.409 41.8985L131.214 38.8523L130.01 41.8985H132.409Z" fill="white"/>
<path d="M137.41 43.7828H136.706V38.1211H138.981C139.531 38.1211 139.962 38.2846 140.278 38.6115C140.598 38.9473 140.757 39.3427 140.757 39.8265C140.757 40.3102 140.594 40.7145 140.273 41.0414C139.953 41.3684 139.527 41.5318 138.981 41.5318H137.413V43.7828H137.41ZM138.895 40.9089C139.231 40.9089 139.502 40.8073 139.708 40.604C139.918 40.4008 140.024 40.1446 140.024 39.8243C140.024 39.504 139.918 39.2477 139.708 39.0533C139.502 38.8501 139.229 38.7485 138.895 38.7485H137.41V40.9067H138.895V40.9089Z" fill="white"/>
<path d="M148.566 43.7828H147.76L147.261 42.5281H144.442L143.943 43.7828H143.136L145.412 38.1211H146.284L148.566 43.7828ZM147.046 41.8985L145.851 38.8523L144.647 41.8985H147.046Z" fill="white"/>
<path d="M155.452 43.7828H154.619L153.179 41.5318H152.05V43.7828H151.345V38.1211H153.62C154.146 38.1211 154.575 38.2779 154.902 38.5894C155.228 38.9009 155.396 39.314 155.396 39.8287C155.396 40.3434 155.253 40.7012 154.972 40.9884C154.687 41.2844 154.34 41.4391 153.93 41.4788L155.456 43.785L155.452 43.7828ZM153.532 40.9177C153.868 40.9177 154.139 40.8161 154.345 40.6063C154.555 40.403 154.661 40.1468 154.661 39.8265C154.661 39.5061 154.555 39.2499 154.345 39.0555C154.139 38.8523 153.866 38.7507 153.532 38.7507H152.047V40.9155H153.532V40.9177Z" fill="white"/>
<path d="M160.643 43.7826H159.943V38.7504H158.151V38.1187H162.443V38.7504H160.645V43.7826H160.643Z" fill="white"/>
<path d="M170.955 43.7828H170.25V39.1262L168.326 43.7828H168.034L166.119 39.1262V43.7828H165.414V38.1211H166.424L168.18 42.3823L169.947 38.1211H170.957V43.7828H170.955Z" fill="white"/>
<path d="M178.023 43.7828H174.317V38.1211H178.023V38.7529H175.021V40.5753H177.966V41.2071H175.021V43.1533H178.023V43.785V43.7828Z" fill="white"/>
<path d="M185.866 43.7828H185.187L181.885 39.2654V43.7828H181.18V38.1211H181.9L185.159 42.5458V38.1211H185.863V43.7828H185.866Z" fill="white"/>
<path d="M191.328 43.7826H190.628V38.7504H188.837V38.1187H193.129V38.7504H191.331V43.7826H191.328Z" fill="white"/>
<path d="M197.938 43.8844C197.019 43.8844 196.294 43.5884 195.764 42.9897L196.182 42.453C196.661 42.9898 197.257 43.2548 197.962 43.2548C198.422 43.2548 198.757 43.1621 198.974 42.9677C199.188 42.7733 199.294 42.5479 199.294 42.2829C199.294 42.0885 199.232 41.9162 199.106 41.7836C198.985 41.6445 198.821 41.5428 198.627 41.4633C198.433 41.3838 198.214 41.3153 197.978 41.2535C197.737 41.1916 197.494 41.1209 197.257 41.0502C197.019 40.9729 196.807 40.8779 196.61 40.7697C196.416 40.6614 196.252 40.5134 196.131 40.3102C196.007 40.1158 195.943 39.8816 195.943 39.6099C195.943 39.1416 196.126 38.7683 196.493 38.4723C196.862 38.1851 197.326 38.0371 197.887 38.0371C198.729 38.0371 199.398 38.3022 199.897 38.8324L199.473 39.3471C199.06 38.8964 198.514 38.6689 197.838 38.6689C197.496 38.6689 197.22 38.755 197.001 38.9185C196.783 39.0908 196.674 39.3007 196.674 39.5658C196.674 39.769 196.756 39.9325 196.924 40.065C197.092 40.1887 197.297 40.2903 197.542 40.3522C197.792 40.414 198.059 40.4913 198.349 40.5863C198.64 40.6791 198.91 40.7741 199.155 40.8823C199.405 40.984 199.61 41.154 199.778 41.3882C199.941 41.6135 200.028 41.8941 200.028 42.2298C200.028 42.6893 199.855 43.0869 199.513 43.405C199.17 43.7254 198.645 43.8888 197.94 43.8888L197.938 43.8844Z" fill="white"/>
<path d="M34.1133 22.1031H19.8221L30.6047 27.3251L33.0952 31.6648H9.75995L24.6805 5.66778L21.4276 0L0 37.3326H42.8552L34.1133 22.1031Z" fill="white"/>
</svg>
