<svg width="160" height="45" viewBox="0 0 160 45" fill="none" xmlns="http://www.w3.org/2000/svg">
<g clip-path="url(#clip0_17_1139)">
<path d="M47.4456 28.2249C46.8446 28.5758 46.1541 28.7433 45.4592 28.7068C43.5669 28.7068 41.703 27.9471 39.8675 26.4275L37.4284 29.3565C39.6032 31.3343 42.4508 32.4076 45.3899 32.3574C47.4651 32.3574 49.132 31.8435 50.3905 30.8157C51.6491 29.7879 52.2766 28.3589 52.2731 26.5287C52.2731 24.9577 51.7902 23.7515 50.8246 22.9101C49.8589 22.0687 48.3571 21.3808 46.3192 20.8465C44.6559 20.4151 43.5651 20.0485 43.0467 19.7468C42.8011 19.614 42.5979 19.4146 42.4604 19.1716C42.3229 18.9286 42.2566 18.6517 42.2692 18.3728C42.2658 18.1333 42.3216 17.8966 42.4317 17.6838C42.5418 17.4711 42.7028 17.2888 42.9003 17.1533C43.4286 16.8104 44.053 16.6462 44.6817 16.6846C46.1675 16.6846 47.7944 17.3015 49.5624 18.5352L51.7086 15.4438C49.7376 13.8526 47.2703 13.0044 44.7376 13.0474C42.808 13.0474 41.2299 13.5657 40.0033 14.6024C39.4043 15.1 38.927 15.7279 38.6076 16.4381C38.2883 17.1483 38.1354 17.922 38.1607 18.7003C38.1433 19.4993 38.2873 20.2935 38.584 21.0355C38.8609 21.6885 39.3158 22.2504 39.8967 22.6571C40.4808 23.082 41.116 23.4318 41.7873 23.6983C42.6373 24.0175 43.5061 24.2843 44.3888 24.4971C45.9065 24.8912 46.9166 25.2533 47.4189 25.5835C47.6466 25.7155 47.8355 25.905 47.9668 26.1331C48.0981 26.3612 48.1672 26.6197 48.1672 26.8829C48.175 27.1502 48.1125 27.4149 47.9859 27.6504C47.8592 27.8859 47.6729 28.084 47.4456 28.2249Z" fill="white"/>
<path d="M64.8704 17.7417C63.7518 12.5714 60.8472 7.96047 56.6667 4.71888C52.4863 1.47729 47.2974 -0.187696 42.0113 0.0163597C36.7253 0.220415 31.6801 2.28046 27.762 5.83468C23.8439 9.38889 21.3034 14.21 20.5867 19.4512H24.6979C25.3926 15.3085 27.4813 11.5273 30.6181 8.73365C33.755 5.93999 37.7519 4.30143 41.947 4.08927C46.1422 3.8771 50.284 5.10406 53.6867 7.56699C57.0894 10.0299 59.5489 13.5811 60.658 17.6326C59.2669 17.9274 57.9892 18.6138 56.9755 19.611C56.2529 20.2912 55.6805 21.1148 55.2949 22.0291C54.9093 22.9434 54.7189 23.9283 54.7361 24.9204C54.7144 25.9131 54.9 26.8995 55.281 27.8164C55.662 28.7334 56.23 29.5608 56.9488 30.2459C57.5188 30.8072 58.1762 31.2721 58.8953 31.6225C57.205 34.5933 54.7217 37.0354 51.7232 38.676C48.7247 40.3165 45.3289 41.0908 41.9156 40.9124C38.5023 40.7339 35.2058 39.6097 32.3947 37.6653C29.5836 35.721 27.3686 33.0332 25.9974 29.9024H21.6358C23.0965 34.0966 25.7659 37.7647 29.3078 40.4444C32.8496 43.1241 37.1054 44.6955 41.5388 44.9606C45.9722 45.2257 50.3849 44.1726 54.2209 41.9341C58.0568 39.6955 61.1443 36.3717 63.0944 32.3814C64.9545 32.2978 66.7186 31.5319 68.0497 30.2299C68.7725 29.5499 69.3451 28.7263 69.7307 27.8119C70.1164 26.8976 70.3066 25.9126 70.2891 24.9204C70.3104 23.9278 70.1247 22.9415 69.7437 22.0246C69.3627 21.1077 68.7949 20.2802 68.0763 19.595C67.1831 18.7141 66.0796 18.0761 64.8704 17.7417ZM65.2485 27.7482C64.9084 28.1252 64.4894 28.4227 64.0215 28.6196C63.5535 28.8166 63.0479 28.9082 62.5405 28.8879C62.0293 28.9037 61.5209 28.8075 61.0508 28.606C60.5807 28.4045 60.1604 28.1027 59.8192 27.7216C59.1155 26.9606 58.7338 25.9567 58.7542 24.9204C58.725 23.8848 59.0905 22.8769 59.7766 22.1006C60.1171 21.7233 60.5365 21.4256 61.0049 21.2287C61.4734 21.0317 61.9795 20.9403 62.4873 20.961C62.9984 20.9457 63.5067 21.0421 63.9767 21.2436C64.4467 21.445 64.8671 21.7466 65.2086 22.1272C65.9111 22.889 66.2926 23.8924 66.2737 24.9284C66.3021 25.9644 65.9356 26.9724 65.2485 27.7482Z" fill="white"/>
<path d="M80.2077 28.8879C79.7104 28.9061 79.2153 28.8132 78.7584 28.6161C78.3015 28.4189 77.8943 28.1225 77.5663 27.7482C76.8885 26.9651 76.5301 25.9556 76.5624 24.9204C76.5326 23.8903 76.8855 22.8857 77.553 22.1006C77.8548 21.7325 78.2361 21.4376 78.6682 21.2379C79.1003 21.0382 79.572 20.939 80.0479 20.9476C81.3092 20.9585 82.5146 21.4689 83.4003 22.3669L85.7968 19.9518C85.089 19.1371 84.2101 18.4889 83.2227 18.0535C82.2354 17.618 81.164 17.4061 80.0852 17.4329C77.9231 17.4329 76.1266 18.1607 74.6959 19.6163C73.9997 20.3089 73.4506 21.135 73.0818 22.0452C72.713 22.9553 72.532 23.9306 72.5497 24.9124C72.5284 25.8953 72.7062 26.8724 73.0723 27.7848C73.4383 28.6973 73.9852 29.5263 74.6799 30.2219C76.1 31.6704 77.8831 32.3938 80.0293 32.392C81.1825 32.4305 82.3289 32.2018 83.379 31.7237C84.332 31.2307 85.1866 30.5674 85.9006 29.7666L83.5041 27.3515C82.4337 28.3775 81.3349 28.8897 80.2077 28.8879Z" fill="white"/>
<path d="M92.8077 17.7071H88.7337V32.0778H92.8077V17.7071Z" fill="white"/>
<path d="M92.9169 12.5068H88.6272V16.1254H92.9169V12.5068Z" fill="white"/>
<path d="M109.7 32.0805V17.7018H105.626V25.7246C105.626 26.6725 105.398 27.3968 104.942 27.8973C104.704 28.15 104.414 28.3479 104.092 28.4776C103.77 28.6072 103.424 28.6655 103.078 28.6482C102.737 28.6682 102.397 28.6111 102.081 28.4811C101.766 28.3511 101.484 28.1515 101.257 27.8973C100.829 27.3968 100.614 26.6725 100.612 25.7246V17.7071H96.5355V27.0266C96.5355 28.6882 96.9651 29.9929 97.8243 30.9408C98.6835 31.8888 99.8808 32.3618 101.416 32.3601C103.025 32.3601 104.428 31.5914 105.626 30.0541V32.0938L109.7 32.0805Z" fill="white"/>
<path d="M128.818 21.1394C130.416 21.1394 131.215 22.1157 131.215 24.0683V32.0858H135.291V22.721C135.291 21.0062 134.866 19.697 134.016 18.7935C133.166 17.8899 131.969 17.4391 130.427 17.4408C128.588 17.4408 127.015 18.2006 125.708 19.7201C124.92 18.1988 123.57 17.4391 121.658 17.4408C120.032 17.4408 118.62 18.2095 117.422 19.7467V17.7071H113.348V32.0858H117.422V24.063C117.422 23.1151 117.643 22.3908 118.08 21.8902C118.306 21.6381 118.587 21.4399 118.9 21.3099C119.213 21.18 119.552 21.1217 119.89 21.1394C121.488 21.1394 122.287 22.1157 122.287 24.0683V32.0858H126.363V24.063C126.363 23.1151 126.582 22.3908 127.018 21.8902C127.244 21.6398 127.523 21.4426 127.834 21.3128C128.145 21.183 128.481 21.1237 128.818 21.1394Z" fill="white"/>
<path d="M137.672 14.0778C137.327 14.0778 136.991 14.18 136.704 14.3713C136.418 14.5627 136.195 14.8346 136.063 15.1528C135.931 15.471 135.897 15.8212 135.964 16.159C136.031 16.4968 136.197 16.8071 136.441 17.0506C136.684 17.2942 136.994 17.46 137.332 17.5272C137.67 17.5944 138.02 17.5599 138.338 17.4281C138.657 17.2963 138.928 17.0731 139.12 16.7867C139.311 16.5003 139.413 16.1637 139.413 15.8192C139.412 15.3578 139.228 14.9157 138.902 14.5894C138.575 14.2631 138.133 14.0792 137.672 14.0778ZM137.672 17.3716C137.365 17.3721 137.064 17.2815 136.809 17.1113C136.553 16.941 136.354 16.6988 136.236 16.4152C136.118 16.1315 136.087 15.8193 136.146 15.518C136.206 15.2167 136.354 14.9399 136.571 14.7225C136.788 14.5051 137.064 14.357 137.365 14.2969C137.667 14.2368 137.979 14.2674 138.263 14.3848C138.546 14.5022 138.789 14.7012 138.96 14.9565C139.13 15.2119 139.222 15.5121 139.222 15.8192C139.222 16.2305 139.058 16.6249 138.768 16.916C138.477 17.207 138.083 17.3709 137.672 17.3716Z" fill="white"/>
<path d="M138.279 15.7527C138.363 15.6558 138.409 15.532 138.409 15.4039C138.409 15.2757 138.363 15.1519 138.279 15.055C138.211 14.9936 138.132 14.9463 138.045 14.9162C137.959 14.886 137.867 14.8734 137.776 14.8793H137.017V16.6447H137.214V15.9577H137.717L138.231 16.6447H138.476L137.943 15.9231C138.069 15.8999 138.186 15.8407 138.279 15.7527ZM137.214 15.7793V15.063H137.746C137.865 15.055 137.982 15.0879 138.079 15.1562C138.12 15.187 138.152 15.2275 138.173 15.274C138.194 15.3206 138.203 15.3716 138.199 15.4225C138.2 15.4736 138.19 15.5242 138.168 15.5705C138.146 15.6167 138.114 15.6572 138.074 15.6888C137.978 15.7573 137.862 15.7919 137.744 15.7873L137.214 15.7793Z" fill="white"/>
<path d="M92.8317 38.9503C92.6334 38.624 92.3542 38.3544 92.0211 38.1678C91.688 37.9812 91.3123 37.8839 90.9305 37.8852C90.6214 37.8877 90.316 37.9533 90.0331 38.0778C89.7502 38.2023 89.4956 38.3832 89.2849 38.6095C88.8283 39.1282 88.5764 39.7956 88.5764 40.4867C88.5764 41.1778 88.8283 41.8452 89.2849 42.3639C89.4993 42.5876 89.7569 42.7655 90.042 42.8868C90.3272 43.0081 90.6339 43.0703 90.9438 43.0695C91.7133 43.0695 92.3444 42.7021 92.845 41.9672V42.963H93.5826V35.9467H92.845L92.8317 38.9503ZM92.3231 41.8553C92.1627 42.0282 91.9682 42.166 91.7519 42.2599C91.5356 42.3539 91.3021 42.402 91.0663 42.4012C90.834 42.405 90.6035 42.3595 90.3901 42.2677C90.1766 42.1759 89.9851 42.0399 89.8281 41.8686C89.6564 41.6827 89.523 41.4647 89.4358 41.2271C89.3485 40.9894 89.309 40.7369 89.3195 40.484C89.2936 39.9676 89.4736 39.4619 89.8201 39.0781C89.9781 38.906 90.171 38.7694 90.3858 38.6776C90.6007 38.5858 90.8327 38.5408 91.0663 38.5456C91.301 38.544 91.5336 38.5905 91.7497 38.6821C91.9658 38.7736 92.1609 38.9084 92.3231 39.0781C92.4999 39.2583 92.6383 39.4725 92.7298 39.7078C92.8214 39.943 92.8642 40.1944 92.8556 40.4467C92.8672 40.7054 92.8259 40.9637 92.7343 41.2058C92.6428 41.448 92.5029 41.669 92.3231 41.8553Z" fill="white"/>
<path d="M97.2917 37.8932C96.9708 37.8874 96.6524 37.9518 96.3589 38.082C96.0655 38.2122 95.804 38.4049 95.5929 38.6468C95.1383 39.149 94.8942 39.8068 94.9113 40.484C94.8984 40.827 94.9552 41.169 95.0784 41.4894C95.2015 41.8098 95.3883 42.1019 95.6275 42.348C95.8548 42.5839 96.1286 42.7701 96.4316 42.8948C96.7345 43.0194 97.0601 43.0799 97.3876 43.0722C97.7754 43.0769 98.1594 42.9961 98.5124 42.8355C98.8654 42.6748 99.1787 42.4384 99.4299 42.1429L98.9693 41.7302C98.7723 41.9499 98.5314 42.1258 98.2621 42.2464C97.9929 42.367 97.7013 42.4298 97.4062 42.4305C96.9723 42.4382 96.552 42.279 96.232 41.9858C95.8942 41.6727 95.6893 41.2419 95.6595 40.7823H99.5923C99.5923 40.7051 99.5923 40.6172 99.5923 40.516C99.6166 39.835 99.3955 39.1679 98.9693 38.6361C98.7645 38.3929 98.507 38.1995 98.2164 38.0708C97.9257 37.942 97.6094 37.8813 97.2917 37.8932ZM95.6595 40.1858C95.6952 39.7374 95.8831 39.3146 96.192 38.9876C96.3294 38.8373 96.4969 38.7176 96.6837 38.6364C96.8704 38.5552 97.0721 38.5143 97.2758 38.5163C97.4844 38.5069 97.6925 38.5449 97.8843 38.6274C98.0762 38.71 98.2468 38.8349 98.3835 38.9929C98.6641 39.3304 98.8309 39.7479 98.8601 40.1858H95.6595Z" fill="white"/>
<path d="M102.891 42.1136L101.222 37.9997H100.407L102.556 42.995H103.208L105.365 37.9997H104.572L102.891 42.1136Z" fill="white"/>
<path d="M108.598 37.8932C108.277 37.8874 107.959 37.9519 107.666 38.082C107.373 38.2122 107.112 38.405 106.901 38.6467C106.447 39.149 106.203 39.8068 106.22 40.484C106.206 40.8268 106.263 41.1688 106.385 41.4892C106.508 41.8095 106.695 42.1017 106.933 42.3479C107.161 42.5836 107.435 42.7696 107.738 42.8943C108.041 43.0189 108.366 43.0795 108.693 43.0722C109.082 43.0771 109.466 42.9964 109.82 42.8357C110.173 42.6751 110.487 42.4386 110.738 42.1429L110.278 41.7302C110.081 41.9499 109.84 42.1257 109.571 42.2464C109.301 42.367 109.01 42.4297 108.715 42.4305C108.28 42.4378 107.859 42.2787 107.538 41.9858C107.202 41.6716 106.998 41.2412 106.968 40.7822H110.901C110.901 40.705 110.901 40.6172 110.901 40.516C110.925 39.8349 110.704 39.1678 110.278 38.6361C110.073 38.392 109.815 38.1981 109.524 38.0693C109.233 37.9405 108.916 37.8803 108.598 37.8932ZM106.968 40.1858C107.004 39.7374 107.192 39.3146 107.501 38.9876C107.638 38.8373 107.805 38.7176 107.992 38.6364C108.179 38.5552 108.381 38.5142 108.584 38.5163C108.793 38.507 109.001 38.5451 109.193 38.6277C109.385 38.7102 109.555 38.8351 109.692 38.9929C109.973 39.3299 110.139 39.7478 110.166 40.1858H106.968Z" fill="white"/>
<path d="M113.01 35.9574H112.272V42.9604H113.01V35.9574Z" fill="white"/>
<path d="M117.009 37.8932C116.665 37.8853 116.324 37.9492 116.006 38.0808C115.688 38.2124 115.401 38.4088 115.164 38.6574C114.925 38.895 114.736 39.1782 114.608 39.4901C114.481 39.802 114.417 40.1364 114.421 40.4734C114.415 40.8121 114.477 41.1486 114.602 41.4632C114.728 41.7778 114.915 42.0641 115.153 42.3053C115.39 42.5527 115.675 42.7478 115.992 42.8781C116.308 43.0083 116.648 43.0708 116.991 43.0616C117.332 43.0644 117.67 42.9994 117.986 42.8705C118.302 42.7416 118.589 42.5512 118.831 42.3104C119.072 42.0697 119.264 41.7833 119.394 41.468C119.524 41.1526 119.591 40.8146 119.589 40.4734C119.596 40.1342 119.534 39.7971 119.407 39.4824C119.28 39.1676 119.091 38.8816 118.852 38.6414C118.613 38.3957 118.326 38.2024 118.009 38.0735C117.692 37.9447 117.351 37.8833 117.009 37.8932ZM118.309 41.8553C118.14 42.0321 117.937 42.1727 117.712 42.2689C117.487 42.365 117.246 42.4145 117.001 42.4145C116.757 42.4145 116.515 42.365 116.29 42.2689C116.066 42.1727 115.863 42.0321 115.694 41.8553C115.343 41.4882 115.151 40.9972 115.161 40.4894C115.148 39.9823 115.33 39.4894 115.67 39.1127C115.833 38.9293 116.034 38.784 116.26 38.6869C116.485 38.5898 116.729 38.5434 116.975 38.5509C117.221 38.5467 117.465 38.5951 117.691 38.6929C117.917 38.7907 118.119 38.9357 118.285 39.1181C118.636 39.4871 118.827 39.9799 118.817 40.4894C118.83 40.9933 118.648 41.4828 118.309 41.8553Z" fill="white"/>
<path d="M123.559 37.8932C122.793 37.8932 122.16 38.2607 121.661 38.9956V37.9997H120.923V44.4941H121.661V42.0098C121.859 42.3355 122.138 42.6047 122.471 42.7913C122.803 42.9778 123.178 43.0755 123.559 43.0749C123.87 43.0761 124.178 43.0136 124.464 42.8913C124.75 42.7691 125.007 42.5896 125.221 42.3639C125.678 41.8452 125.93 41.1778 125.93 40.4867C125.93 39.7956 125.678 39.1282 125.221 38.6095C125.007 38.3836 124.75 38.2036 124.464 38.0805C124.178 37.9574 123.871 37.8936 123.559 37.8932ZM124.673 41.8873C124.514 42.0592 124.321 42.1955 124.107 42.2873C123.892 42.3791 123.66 42.4243 123.426 42.4198C123.192 42.4214 122.959 42.3749 122.743 42.2834C122.527 42.1918 122.332 42.057 122.17 41.8873C121.824 41.5113 121.632 41.019 121.632 40.508C121.632 39.997 121.824 39.5047 122.17 39.1287C122.331 38.9583 122.526 38.823 122.742 38.7313C122.959 38.6397 123.192 38.5937 123.426 38.5962C123.659 38.5925 123.889 38.6381 124.102 38.7299C124.316 38.8217 124.507 38.9576 124.665 39.1287C124.836 39.3148 124.969 39.5328 125.057 39.7704C125.144 40.008 125.184 40.2604 125.173 40.5133C125.189 41.0162 125.009 41.5055 124.673 41.8793V41.8873Z" fill="white"/>
<path d="M129.364 37.8932C129.043 37.8874 128.725 37.9518 128.431 38.082C128.138 38.2122 127.877 38.4049 127.665 38.6468C127.213 39.1503 126.969 39.8072 126.984 40.484C126.971 40.827 127.028 41.169 127.151 41.4894C127.274 41.8098 127.461 42.1018 127.7 42.3479C127.927 42.5839 128.201 42.7701 128.504 42.8948C128.807 43.0194 129.133 43.0798 129.46 43.0722C129.848 43.0769 130.232 42.9961 130.585 42.8354C130.938 42.6748 131.251 42.4384 131.502 42.1429L131.042 41.7302C130.845 41.9499 130.604 42.1257 130.335 42.2464C130.065 42.367 129.774 42.4297 129.479 42.4305C129.045 42.4382 128.624 42.279 128.304 41.9858C127.968 41.6718 127.763 41.2416 127.732 40.7823H131.665C131.669 40.6936 131.669 40.6047 131.665 40.516C131.689 39.8349 131.468 39.1678 131.042 38.6361C130.837 38.3927 130.58 38.1992 130.289 38.0705C129.998 37.9417 129.682 37.8811 129.364 37.8932ZM127.732 40.1858C127.77 39.738 127.958 39.3159 128.265 38.9876C128.402 38.8371 128.57 38.7173 128.757 38.6361C128.945 38.5549 129.147 38.514 129.351 38.5163C129.559 38.5074 129.767 38.5457 129.959 38.6282C130.151 38.7107 130.322 38.8354 130.459 38.9929C130.738 39.3306 130.904 39.7481 130.933 40.1858H127.732Z" fill="white"/>
<path d="M133.707 39.2938V37.9997H132.97V42.9577H133.707V40.982C133.669 40.3719 133.869 39.7708 134.264 39.3045C134.443 39.1099 134.661 38.956 134.905 38.8531C135.148 38.7502 135.411 38.7007 135.675 38.708H135.731V37.9092C135.3 37.8824 134.873 38.0077 134.525 38.2633C134.164 38.527 133.882 38.883 133.707 39.2938Z" fill="white"/>
</g>
<defs>
<clipPath id="clip0_17_1139">
<rect width="160" height="45" fill="white"/>
</clipPath>
</defs>
</svg>
