<svg width="300" height="208" viewBox="0 0 300 208" fill="none" xmlns="http://www.w3.org/2000/svg">
<g clip-path="url(#clip0_17_1411)">
<path d="M-2.95807e-05 165.12V163.828C-2.95807e-05 157.408 3.34532 151.708 8.39901 148.442C11.2487 146.58 14.6692 145.479 18.3525 145.479C25.3811 145.479 31.5348 149.508 34.5761 155.358L27.0519 159.082C25.3811 155.966 22.0733 153.875 18.3525 153.875C12.882 153.875 8.39901 158.358 8.39901 163.828V165.12C8.39901 170.594 12.882 175.077 18.3525 175.077C21.2773 175.077 23.898 173.823 25.7227 171.769H17.8568V163.374H36.6636V165.12C36.6636 167.478 36.2093 169.715 35.4096 171.769C32.7513 178.61 26.1019 183.472 18.3487 183.472C14.6617 183.472 11.245 182.372 8.39525 180.51C3.34156 177.243 -0.00378418 171.581 -0.00378418 165.12H-2.95807e-05Z" fill="white"/>
<path d="M51.0926 145.438H59.4916V175.077H80.6563V183.435H51.0963V145.438H51.0926Z" fill="white"/>
<path d="M114.842 163.599L111.117 170.82L105.872 180.814L104.505 183.435H95.0815L96.4481 180.814L97.169 179.41L100.818 172.457L110.126 154.521L114.838 145.438L119.588 154.521L128.895 172.457L132.504 179.41L133.266 180.814L134.632 183.435H125.171L123.804 180.814H111.418L114.455 172.457H119.434L114.838 163.603L114.842 163.599Z" fill="white"/>
<path d="M178.246 170.894L183.641 173.553C180.562 179.406 174.409 183.431 167.38 183.431C163.731 183.431 160.314 182.368 157.427 180.469C153.969 178.227 151.348 174.844 150.015 170.894C149.369 169.073 149.065 167.132 149.065 165.12V163.791C149.065 161.778 149.369 159.841 150.015 158.016C151.344 154.025 153.969 150.683 157.427 148.404C160.314 146.542 163.734 145.442 167.38 145.442C174.409 145.442 180.566 149.508 183.641 155.358L178.246 158.016L176.117 159.041C175.925 158.662 175.7 158.32 175.471 158.016C173.646 155.508 170.722 153.837 167.376 153.837C164.031 153.837 161.106 155.508 159.285 158.016C158.106 159.649 157.423 161.624 157.423 163.791V165.12C157.423 167.286 158.106 169.261 159.285 170.894C161.11 173.402 164.072 175.073 167.376 175.073C170.68 175.073 173.646 173.402 175.471 170.894C175.7 170.553 175.925 170.211 176.117 169.869L178.246 170.894Z" fill="white"/>
<path d="M206.428 145.438V183.435H198.07V145.438H206.428Z" fill="white"/>
<path d="M229.222 168.653V175.073H251.603V183.431H220.864V145.435H251.603V153.834H229.222V168.653V168.653ZM235.455 160.254H248.982V168.653H232.417L235.455 160.254Z" fill="white"/>
<path d="M266.032 145.438H287.347C294.3 145.438 300 151.138 300 158.091C300 163.791 296.125 168.653 290.918 170.174L300 183.435H289.818L281.118 170.707L280.776 170.174H277.777L280.626 162.308H287.351C289.667 162.308 291.608 160.408 291.608 158.091C291.608 155.775 289.671 153.838 287.351 153.838H274.431V183.435H266.032V145.438V145.438Z" fill="white"/>
<path d="M191.92 72.6102H144.695L180.326 89.765L188.556 104.021H111.444L160.749 18.6191L150 0L79.192 122.64H220.808L191.92 72.6102Z" fill="white"/>
<path d="M38.9427 207.329H37.745V197.706H41.6122C42.5471 197.706 43.2792 197.984 43.8162 198.54C44.3606 199.11 44.6309 199.782 44.6309 200.605C44.6309 201.427 44.3531 202.114 43.8086 202.67C43.2642 203.225 42.5396 203.503 41.6122 203.503H38.9464V207.329H38.9427ZM41.4658 202.444C42.0365 202.444 42.4983 202.272 42.8475 201.926C43.2042 201.581 43.3844 201.145 43.3844 200.601C43.3844 200.056 43.2042 199.621 42.8475 199.29C42.4983 198.945 42.0327 198.772 41.4658 198.772H38.9427V202.441H41.4658V202.444Z" fill="white"/>
<path d="M56.6569 207.329H55.2414L52.7934 203.503H50.8748V207.329H49.6771V197.706H53.5443C54.4379 197.706 55.1663 197.973 55.722 198.502C56.2777 199.031 56.563 199.734 56.563 200.608C56.563 201.483 56.319 202.091 55.8421 202.58C55.3578 203.083 54.7683 203.345 54.07 203.413L56.6644 207.333L56.6569 207.329ZM53.3942 202.459C53.9648 202.459 54.4267 202.287 54.7758 201.93C55.1325 201.585 55.3128 201.149 55.3128 200.605C55.3128 200.06 55.1325 199.625 54.7758 199.294C54.4267 198.949 53.9611 198.776 53.3942 198.776H50.8711V202.456H53.3942V202.459Z" fill="white"/>
<path d="M68.206 207.329H61.9058V197.706H68.206V198.78H63.1035V201.877H68.1084V202.951H63.1035V206.259H68.206V207.333V207.329Z" fill="white"/>
<path d="M82.9916 207.329H81.7939V199.414L78.5237 207.329H78.0281L74.7728 199.414V207.329H73.5751V197.706H75.291L78.2759 204.949L81.2795 197.706H82.9954V207.329H82.9916Z" fill="white"/>
<path d="M89.9001 207.329H88.7024V197.706H89.9001V207.329Z" fill="white"/>
<path d="M102.459 206.455C101.791 207.157 100.818 207.502 99.5419 207.502C98.2653 207.502 97.2854 207.157 96.6171 206.455C95.9487 205.752 95.6183 204.799 95.6183 203.594V197.703H96.8161V203.567C96.8161 204.453 97.0489 205.156 97.5257 205.674C97.995 206.177 98.6708 206.428 99.5457 206.428C100.42 206.428 101.096 206.177 101.566 205.674C102.035 205.156 102.275 204.457 102.275 203.567V197.703H103.473V203.579C103.473 204.795 103.135 205.749 102.467 206.451L102.459 206.455Z" fill="white"/>
<path d="M118.593 207.329H117.395V199.414L114.125 207.329H113.629L110.374 199.414V207.329H109.176V197.706H110.892L113.877 204.949L116.881 197.706H118.596V207.329H118.593Z" fill="white"/>
<path d="M146.91 207.329H145.54L144.691 205.196H139.9L139.052 207.329H137.681L141.548 197.706H143.031L146.91 207.329V207.329ZM144.327 204.126L142.296 198.949L140.249 204.126H144.327Z" fill="white"/>
<path d="M152.827 207.329H151.629V197.706H155.497C156.432 197.706 157.164 197.984 157.701 198.54C158.245 199.11 158.515 199.782 158.515 200.605C158.515 201.427 158.238 202.114 157.693 202.67C157.149 203.225 156.424 203.503 155.497 203.503H152.831V207.329H152.827ZM155.35 202.444C155.921 202.444 156.383 202.272 156.732 201.926C157.089 201.581 157.269 201.145 157.269 200.601C157.269 200.056 157.089 199.621 156.732 199.29C156.383 198.945 155.917 198.772 155.35 198.772H152.827V202.441H155.35V202.444Z" fill="white"/>
<path d="M171.788 207.329H170.417L169.569 205.196H164.778L163.93 207.329H162.559L166.426 197.706H167.909L171.788 207.329V207.329ZM169.205 204.126L167.174 198.949L165.127 204.126H169.205Z" fill="white"/>
<path d="M183.491 207.329H182.076L179.628 203.503H177.709V207.329H176.511V197.706H180.378C181.272 197.706 182 197.973 182.556 198.502C183.112 199.031 183.397 199.734 183.397 200.608C183.397 201.483 183.153 202.091 182.676 202.58C182.192 203.083 181.602 203.345 180.904 203.413L183.499 207.333L183.491 207.329ZM180.228 202.459C180.799 202.459 181.261 202.287 181.61 201.93C181.967 201.585 182.147 201.149 182.147 200.605C182.147 200.06 181.967 199.625 181.61 199.294C181.261 198.949 180.795 198.776 180.228 198.776H177.705V202.456H180.228V202.459Z" fill="white"/>
<path d="M192.314 207.329H191.124V198.776H188.079V197.703H195.374V198.776H192.318V207.329H192.314Z" fill="white"/>
<path d="M209.841 207.329H208.643V199.414L205.373 207.329H204.877L201.622 199.414V207.329H200.424V197.706H202.14L205.125 204.949L208.129 197.706H209.845V207.329H209.841Z" fill="white"/>
<path d="M221.855 207.329H215.555V197.706H221.855V198.78H216.753V201.877H221.758V202.951H216.753V206.259H221.855V207.333V207.329Z" fill="white"/>
<path d="M235.184 207.329H234.032L228.419 199.651V207.329H227.221V197.706H228.445L233.983 205.227V197.706H235.181V207.329H235.184Z" fill="white"/>
<path d="M244.469 207.329H243.279V198.776H240.234V197.703H247.529V198.776H244.473V207.329H244.469Z" fill="white"/>
<path d="M255.703 207.502C254.141 207.502 252.91 206.999 252.009 205.981L252.718 205.069C253.533 205.981 254.547 206.432 255.745 206.432C256.525 206.432 257.096 206.274 257.464 205.944C257.828 205.613 258.009 205.23 258.009 204.78C258.009 204.449 257.903 204.157 257.689 203.931C257.483 203.695 257.205 203.522 256.875 203.387C256.544 203.252 256.173 203.135 255.771 203.03C255.362 202.925 254.949 202.805 254.547 202.685C254.141 202.553 253.781 202.392 253.447 202.208C253.116 202.024 252.838 201.772 252.632 201.427C252.422 201.097 252.313 200.699 252.313 200.237C252.313 199.441 252.624 198.806 253.248 198.303C253.875 197.815 254.663 197.563 255.617 197.563C257.047 197.563 258.185 198.014 259.034 198.915L258.313 199.79C257.611 199.024 256.683 198.637 255.534 198.637C254.952 198.637 254.483 198.784 254.111 199.062C253.74 199.354 253.556 199.711 253.556 200.162C253.556 200.507 253.695 200.785 253.98 201.01C254.265 201.22 254.614 201.393 255.031 201.498C255.455 201.603 255.91 201.735 256.402 201.896C256.897 202.054 257.355 202.215 257.772 202.399C258.196 202.572 258.545 202.861 258.831 203.259C259.109 203.642 259.255 204.119 259.255 204.69C259.255 205.471 258.962 206.146 258.38 206.687C257.798 207.232 256.905 207.509 255.707 207.509L255.703 207.502Z" fill="white"/>
</g>
<defs>
<clipPath id="clip0_17_1411">
<rect width="300" height="207.502" fill="white"/>
</clipPath>
</defs>
</svg>
