<svg width="66" height="8" viewBox="0 0 66 8" fill="none" xmlns="http://www.w3.org/2000/svg">
<path d="M65 4V3.5V4ZM53 4V4.5V4ZM0.646446 4.35356C0.451187 4.1583 0.451187 3.84171 0.646446 3.64645L3.82843 0.464472C4.02369 0.269209 4.34027 0.269209 4.53553 0.464472C4.7308 0.659734 4.7308 0.976316 4.53553 1.17158L1.70711 4.00001L4.53553 6.82843C4.7308 7.02369 4.7308 7.34028 4.53553 7.53554C4.34027 7.7308 4.02369 7.7308 3.82843 7.53554L0.646446 4.35356ZM4.64644 4.35356C4.45118 4.1583 4.45118 3.84171 4.64644 3.64645L7.82842 0.464472C8.02369 0.269209 8.34027 0.269209 8.53553 0.464471C8.73079 0.659734 8.73079 0.976316 8.53553 1.17158L5.7071 4.00001L8.53553 6.82843C8.73079 7.02369 8.73079 7.34028 8.53553 7.53554C8.34027 7.7308 8.02369 7.7308 7.82842 7.53554L4.64644 4.35356ZM66 4.5H65V3.5H66V4.5ZM65 4.5L53 4.5V3.5L65 3.5L65 4.5ZM53 4.5L1 4.50001V3.50001L53 3.5V4.5ZM53 4.5L5 4.50001V3.50001L53 3.5V4.5Z" fill="#B3B3B3"/>
</svg>
