<svg width="66" height="8" viewBox="0 0 66 8" fill="none" xmlns="http://www.w3.org/2000/svg">
<path d="M1 4V3.5V4ZM13 4V4.5V4ZM65.3536 4.35356C65.5488 4.1583 65.5488 3.84171 65.3536 3.64645L62.1716 0.464472C61.9763 0.269209 61.6597 0.269209 61.4645 0.464472C61.2692 0.659734 61.2692 0.976316 61.4645 1.17158L64.2929 4.00001L61.4645 6.82843C61.2692 7.02369 61.2692 7.34028 61.4645 7.53554C61.6597 7.7308 61.9763 7.7308 62.1716 7.53554L65.3536 4.35356ZM61.3536 4.35356C61.5488 4.1583 61.5488 3.84171 61.3536 3.64645L58.1716 0.464472C57.9763 0.269209 57.6597 0.269209 57.4645 0.464471C57.2692 0.659734 57.2692 0.976316 57.4645 1.17158L60.2929 4.00001L57.4645 6.82843C57.2692 7.02369 57.2692 7.34028 57.4645 7.53554C57.6597 7.7308 57.9763 7.7308 58.1716 7.53554L61.3536 4.35356ZM0 4.5H1V3.5H0V4.5ZM1 4.5L13 4.5V3.5L1 3.5L1 4.5ZM13 4.5L65 4.50001V3.50001L13 3.5V4.5ZM13 4.5L61 4.50001V3.50001L13 3.5V4.5Z" fill="#B3B3B3"/>
</svg>
