<svg width="248" height="256" viewBox="0 0 248 256" fill="none" xmlns="http://www.w3.org/2000/svg">
<path d="M162.167 145.322L170.866 160.319C172.665 163.618 168.916 167.067 165.917 164.968L151.819 156.869L154.369 147.421L162.167 145.322ZM242.852 128.375C244.801 128.375 246.451 126.875 246.451 124.926C246.451 122.976 244.801 121.476 242.852 121.476H229.354V116.677H243.751C245.701 116.677 247.201 115.028 247.201 113.228C247.201 111.278 245.701 109.629 243.751 109.629H225.905C223.955 109.629 222.306 111.278 222.306 113.228V137.373C222.306 139.323 223.955 140.972 225.905 140.972H244.351C246.301 140.972 247.801 139.323 247.801 137.373C247.801 135.574 246.301 133.924 244.351 133.924H229.354V128.375H242.852ZM142.521 3.44933C142.521 1.49971 141.022 0 139.072 0C137.122 0 135.473 1.49971 135.473 3.44933V17.9965L124.375 2.69947C123.175 0.899824 121.225 -0.449912 118.976 1.19977C118.076 1.79965 117.626 2.84944 117.626 4.04921V28.7944C117.626 30.744 119.126 32.3937 121.075 32.3937C123.025 32.3937 124.525 30.744 124.525 28.7944V14.6971L136.073 30.594C136.672 31.6438 137.722 32.3937 139.072 32.3937C141.022 32.3937 142.521 30.744 142.521 28.7944V3.44933ZM6.94774 111.578C6.49783 109.779 4.54821 108.579 2.74856 109.179C0.798938 109.629 -0.250857 111.578 0.199055 113.378L6.94774 138.273C8.1475 142.622 12.7966 143.072 13.8464 139.323L19.0954 123.876L24.0444 139.323C25.0942 142.772 29.8933 142.472 30.6431 139.173L38.1416 113.228C38.7415 111.278 37.6917 109.479 35.7421 108.879C33.9425 108.429 31.9928 109.479 31.393 111.278L27.1938 126.275L22.5447 111.728C21.7948 108.279 16.8458 107.979 15.796 111.428L10.847 126.125L6.94774 111.578ZM129.774 256C123.625 256 118.526 250.901 118.526 244.602C118.526 242.653 120.026 241.153 121.975 241.153C123.925 241.153 125.425 242.653 125.425 244.602C125.425 247.002 127.374 248.951 129.774 248.951C132.173 248.951 134.123 247.002 134.123 244.602C134.123 241.303 131.723 240.703 129.174 240.103C124.075 238.903 118.976 237.704 118.976 229.005C118.976 222.706 124.075 217.757 130.224 217.757C136.522 217.757 141.621 222.856 141.621 229.005C141.621 230.955 139.972 232.455 138.172 232.455C136.222 232.455 134.573 230.955 134.573 229.005C134.573 226.606 132.623 224.656 130.224 224.656C127.974 224.656 126.024 226.606 126.024 229.005C126.024 232.155 128.424 232.755 130.824 233.354C135.923 234.554 141.172 235.754 141.172 244.602C141.172 250.901 136.073 256 129.774 256ZM130.074 40.3421C177.015 40.3421 214.957 78.4347 214.957 125.226C214.957 172.166 177.015 210.259 130.074 210.259C83.1329 210.259 45.0403 172.166 45.0403 125.226C45.0403 78.4347 83.1329 40.3421 130.074 40.3421ZM130.074 47.3907C87.0321 47.3907 52.0889 82.184 52.0889 125.226C52.0889 168.417 87.0321 203.21 130.074 203.21C173.115 203.21 208.058 168.417 208.058 125.226C208.058 82.184 173.115 47.3907 130.074 47.3907ZM62.8868 121.626L112.677 110.078L126.774 57.5888C127.674 53.9895 132.773 54.1394 133.523 57.7387L147.17 108.429L197.561 121.926C201.16 122.826 201.01 127.925 197.411 128.675L148.67 141.722L134.873 193.012C133.973 196.612 128.874 196.462 128.124 192.862L114.777 143.222L62.4369 128.525C58.8376 127.475 59.2875 122.226 62.8868 121.626ZM89.4316 160.619L98.5798 145.921L109.078 148.921L111.027 156.12L93.9307 165.718C90.7814 167.517 87.332 163.618 89.4316 160.619ZM98.7298 106.179L89.2817 89.6825C87.332 86.3831 91.2313 82.9338 94.3807 85.0334L109.678 94.0316L106.978 104.23L98.7298 106.179ZM150.47 93.5817L165.317 85.0334C168.466 83.2337 172.065 87.133 169.816 90.1324L161.268 104.979L152.869 102.73L150.47 93.5817Z" fill="white"/>
</svg>
