<svg width="32" height="24" viewBox="0 0 32 24" fill="none" xmlns="http://www.w3.org/2000/svg">
<path d="M7.54415 1.36754C7.81638 0.55086 8.58066 0 9.44152 0H29.2251C30.5903 0 31.5542 1.33739 31.1225 2.63246L24.4558 22.6325C24.1836 23.4491 23.4193 24 22.5585 24H2.77485C1.40974 24 0.445798 22.6626 0.877485 21.3675L7.54415 1.36754Z" fill="#AD343A"/>
<path d="M17.1931 20V12.7022H19.5508L19.9046 9.85725H17.1931V8.04118C17.1931 7.21776 17.4124 6.65661 18.5506 6.65661L20 6.65599V4.11138C19.7494 4.07756 18.889 4 17.8876 4C15.7965 4 14.3649 5.32557 14.3649 7.75942V9.85725H12V12.7022H14.3649V20H17.1931Z" fill="#F5F5F5"/>
</svg>
