<svg width="32" height="24" viewBox="0 0 32 24" fill="none" xmlns="http://www.w3.org/2000/svg">
<path fill-rule="evenodd" clip-rule="evenodd" d="M9.44152 0C8.58066 0 7.81638 0.55086 7.54416 1.36754L0.877489 21.3675C0.445802 22.6626 1.40974 24 2.77486 24H22.5585C23.4193 24 24.1836 23.4491 24.4559 22.6325L31.1225 2.63246C31.5542 1.33739 30.5903 0 29.2252 0H9.44152ZM19.094 14.6342C20.1184 13.8088 21.1709 14.3095 22.208 15.1362L22.8317 15.6364C23.8695 16.465 24.5026 17.3054 23.4836 18.1309L22.9295 18.581C22.5423 18.9538 21.3042 19.9791 19.2541 19.9997C16.7874 20.0247 14.1833 18.5904 11.5235 15.735C8.86047 12.8809 7.6981 10.2797 8.06658 8.00811C8.37275 6.11493 9.63494 5.11839 10.0865 4.81181L10.6385 4.36224C11.6602 3.53616 12.4642 4.23861 13.2024 5.30821L13.646 5.95758C14.3809 7.02967 14.7655 8.07117 13.7465 8.8985L13.1314 9.39802C13.0832 9.43668 13.0179 9.47739 12.9439 9.52357C12.3305 9.90628 11.1155 10.6643 13.9856 13.7382C16.852 16.8113 17.825 15.8031 18.3197 15.2906C18.3802 15.2279 18.4336 15.1726 18.4824 15.1331L19.094 14.6342Z" fill="white"/>
</svg>
