<svg width="32" height="24" viewBox="0 0 32 24" fill="none" xmlns="http://www.w3.org/2000/svg">
<path d="M7.54415 1.36754C7.81638 0.55086 8.58066 0 9.44152 0H29.2251C30.5903 0 31.5542 1.33739 31.1225 2.63246L24.4558 22.6325C24.1836 23.4491 23.4193 24 22.5585 24H2.77485C1.40974 24 0.445798 22.6626 0.877485 21.3675L7.54415 1.36754Z" fill="#AD343A"/>
<path d="M22.208 15.1362C21.1709 14.3095 20.1184 13.8088 19.094 14.6342L18.4824 15.1331C18.0348 15.4953 17.2027 17.1874 13.9856 13.7382C10.7692 10.2934 12.6832 9.75705 13.1314 9.39802L13.7464 8.8985C14.7654 8.07117 14.3809 7.02967 13.646 5.95758L13.2024 5.30821C12.4642 4.23861 11.6602 3.53616 10.6385 4.36224L10.0865 4.81181C9.63494 5.11839 8.37274 6.11493 8.06657 8.00811C7.6981 10.2797 8.86047 12.8809 11.5235 15.735C14.1833 18.5904 16.7874 20.0247 19.2541 19.9997C21.3042 19.9791 22.5423 18.9538 22.9295 18.581L23.4836 18.1309C24.5026 17.3054 23.8695 16.465 22.8317 15.6364L22.208 15.1362Z" fill="white"/>
</svg>
