<svg width="32" height="24" viewBox="0 0 32 24" fill="none" xmlns="http://www.w3.org/2000/svg">
<path fill-rule="evenodd" clip-rule="evenodd" d="M9.44152 0C8.58066 0 7.81638 0.55086 7.54416 1.36754L0.877489 21.3675C0.445802 22.6626 1.40974 24 2.77486 24H22.5585C23.4193 24 24.1836 23.4491 24.4559 22.6325L31.1225 2.63246C31.5542 1.33739 30.5903 0 29.2252 0H9.44152ZM23.666 7.85295L23.646 7.7146C23.8787 9.05224 24 10.4315 24 11.8412V11.8417C24 11.8987 24 11.9557 23.9993 12.0035C24 12.0556 24 12.1077 24 12.1591V12.1595C24 13.5685 23.8787 14.9478 23.6667 16.1464L23.6633 16.1612C23.4733 16.8727 22.9507 17.4332 22.274 17.6407C21.0134 18 16.0074 18 16.0074 18C16.0074 18 10.9868 18 9.74085 17.6407L9.72685 17.6372C9.06352 17.4332 8.54153 16.8727 8.3482 16.1464L8.36886 16.2861C7.87887 13.5268 7.8822 10.4301 8.3482 7.85295L8.35153 7.83813C8.54153 7.1266 9.06419 6.56613 9.74018 6.3586C11.0002 5.99295 16.0068 6.00001 16.0068 6.00001C16.0068 6.00001 21.026 6.00001 22.2734 6.3586L22.2874 6.36213C22.9507 6.56613 23.4727 7.1266 23.666 7.85295ZM14.4055 9.42918V14.5772L18.5827 12.0071L14.4055 9.42918Z" fill="white"/>
</svg>
