<svg width="32" height="24" viewBox="0 0 32 24" fill="none" xmlns="http://www.w3.org/2000/svg">
<path d="M7.54415 1.36754C7.81638 0.55086 8.58066 0 9.44152 0H29.2251C30.5903 0 31.5542 1.33739 31.1225 2.63246L24.4558 22.6325C24.1836 23.4491 23.4193 24 22.5585 24H2.77485C1.40974 24 0.445798 22.6626 0.877485 21.3675L7.54415 1.36754Z" fill="#AD343A"/>
<path d="M23.646 7.7146L23.666 7.85295C23.4727 7.1266 22.9507 6.56613 22.2874 6.36213L22.2734 6.3586C21.026 6.00001 16.0068 6.00001 16.0068 6.00001C16.0068 6.00001 11.0002 5.99295 9.74017 6.3586C9.06418 6.56613 8.54152 7.1266 8.35153 7.83813L8.34819 7.85295C7.8822 10.4301 7.87886 13.5268 8.36886 16.2861L8.34819 16.1464C8.54152 16.8727 9.06352 17.4332 9.72684 17.6372L9.74084 17.6407C10.9868 18 16.0074 18 16.0074 18C16.0074 18 21.0134 18 22.274 17.6407C22.9507 17.4332 23.4733 16.8727 23.6633 16.1612L23.6667 16.1464C23.8787 14.9478 24 13.5685 24 12.1595C24 12.108 24 12.0558 23.9993 12.0035C24 11.9555 24 11.8984 24 11.8412C24 10.4315 23.8787 9.05224 23.646 7.7146ZM14.4055 14.5772V9.42918L18.5827 12.0071L14.4055 14.5772Z" fill="white"/>
</svg>
