<?xml version="1.0" encoding="UTF-8"?> <svg xmlns="http://www.w3.org/2000/svg" width="103" height="19" viewBox="0 0 103 19" fill="none"><g clip-path="url(#clip0_17_1476)"><path d="M29.2983 8.01122C28.0585 8.01122 26.9692 8.43835 26.0933 9.14214V4.27383C26.0933 4.07968 25.9429 3.93164 25.7512 3.93164C25.6857 3.93164 25.6227 3.95348 25.579 3.97532L23.6769 4.82958C23.5265 4.87327 23.444 5.00189 23.444 5.14993V13.5057C23.444 16.6048 25.8386 18.9952 28.9538 18.9952C32.069 18.9952 34.4636 16.5999 34.4636 13.5057C34.4684 10.4065 32.2 8.01122 29.2959 8.01122H29.2983ZM28.9562 16.4762C27.3549 16.4762 26.1127 15.2579 26.1127 13.5057C26.1127 11.7535 27.3525 10.5352 28.9562 10.5352C30.5599 10.5352 31.7997 11.7535 31.7997 13.5057C31.7997 15.2579 30.5599 16.4762 28.9562 16.4762Z" fill="#AD343A"></path><path d="M52.4753 3.93164C52.4098 3.93164 52.3467 3.95348 52.303 3.97532L50.4009 4.82958C50.2505 4.87327 50.168 5.00189 50.168 5.14993V18.4395C50.168 18.6336 50.3185 18.7817 50.5101 18.7817H52.4341C52.667 18.7817 52.8174 18.6312 52.8174 18.4395V4.27383C52.8174 4.07968 52.667 3.93164 52.4753 3.93164Z" fill="#AD343A"></path><path d="M46.7083 8.3994H44.7407C44.5466 8.3994 44.3986 8.54987 44.3986 8.74159V14.0637C44.3986 15.4956 43.3505 16.476 41.987 16.476C40.6235 16.476 39.5754 15.4932 39.5754 14.0637V8.73916C39.5754 8.54501 39.425 8.39697 39.2334 8.39697H37.3094C37.0765 8.39697 36.9261 8.54744 36.9261 8.73916V14.0613C36.9261 16.8619 39.1266 18.9976 41.987 18.9976C44.8475 18.9976 47.048 16.8619 47.048 14.0613V8.78285C47.0529 8.54987 46.9024 8.3994 46.7083 8.3994Z" fill="#AD343A"></path><path d="M85.0319 8.3994H83.0036C82.7877 8.3994 82.6616 8.50618 82.6203 8.63238L79.7987 15.9615L76.9383 8.63238C76.8946 8.50376 76.766 8.3994 76.618 8.3994H74.4393C74.2452 8.3994 74.0972 8.52802 74.0972 8.69791C74.0972 8.78285 74.1409 8.89206 74.1627 8.95273L77.9645 18.5462C78.0082 18.6966 78.1368 18.7791 78.3066 18.7791H81.167C81.3175 18.7791 81.4218 18.6942 81.4873 18.5631L85.3109 8.94787C85.3328 8.88235 85.3764 8.77557 85.3764 8.69305C85.3691 8.5256 85.2236 8.39697 85.0295 8.39697L85.0319 8.3994Z" fill="#AD343A"></path><path d="M102.653 3.93164C102.588 3.93164 102.524 3.95348 102.481 3.97532L100.579 4.82958C100.428 4.87327 100.346 5.00189 100.346 5.14993V18.3958C100.346 18.6288 100.496 18.7793 100.688 18.7793H102.655C102.85 18.7793 102.998 18.6288 102.998 18.4371V4.27383C102.993 4.07968 102.845 3.93164 102.651 3.93164H102.653Z" fill="#AD343A"></path><path d="M92.1017 8.01123C89.069 8.01123 86.6744 10.4066 86.6744 13.5008C86.6744 16.5951 89.1515 18.9904 92.4219 18.9904C94.0669 18.9904 95.6051 18.3473 96.6289 17.3037C96.6726 17.2382 96.7138 17.1751 96.7138 17.0708C96.7138 16.9858 96.6701 16.8984 96.6071 16.8378L95.411 15.6195C95.3455 15.554 95.2605 15.5127 95.178 15.5127C95.0713 15.5127 94.984 15.5564 94.9233 15.6195C94.2416 16.1752 93.5137 16.4519 92.4462 16.4519C90.9929 16.4519 89.7968 15.6826 89.3917 14.4667H97.1238C97.3567 14.4667 97.5508 14.2726 97.5508 14.0833V13.5057C97.5508 10.4066 95.1392 8.01123 92.1017 8.01123ZM89.3892 12.4354C89.7726 11.1953 90.7576 10.5109 92.1017 10.5109C93.4458 10.5109 94.4745 11.2802 94.7947 12.4354H89.3892Z" fill="#AD343A"></path><path d="M56.214 13.4618L59.7174 8.99874C59.7829 8.93321 59.846 8.82643 59.846 8.72207C59.846 8.52792 59.6956 8.37988 59.5039 8.37988H57.3034C57.1093 8.37988 57.005 8.48667 56.92 8.61286L53.3099 13.2919C53.1813 13.4423 53.1595 13.6122 53.3099 13.7627L57.0462 18.5703C57.1311 18.6771 57.2403 18.7863 57.3883 18.7863H59.7392C59.9333 18.7863 60.0813 18.6359 60.0813 18.4441C60.0813 18.3373 60.0158 18.25 59.9527 18.1893L56.2116 13.4666L56.214 13.4618Z" fill="#AD343A"></path><path d="M67.1293 8.01123C63.9462 8.01123 61.4691 10.4066 61.4691 13.5008C61.4691 16.5951 63.9462 18.9904 67.1293 18.9904C70.3124 18.9904 72.7895 16.5951 72.7895 13.5008C72.7943 10.4066 70.3124 8.01123 67.1293 8.01123ZM67.1293 16.4762C65.4431 16.4762 64.1184 15.2579 64.1184 13.5057C64.1184 11.7535 65.4431 10.5352 67.1293 10.5352C68.8155 10.5352 70.1401 11.7535 70.1401 13.5057C70.1401 15.2579 68.8203 16.4762 67.1293 16.4762Z" fill="#AD343A"></path><path d="M12.667 6.32686C12.6621 2.83702 9.8235 0 6.33227 0C3.50337 0 1.10147 1.86627 0.291139 4.42662C1.71044 4.43147 6.32984 4.43875 6.32984 4.43875C7.37794 4.44361 8.22467 5.28816 8.22467 6.33657C8.22467 6.69089 8.21011 9.61042 8.21011 10.7826C9.1369 10.7875 11.5461 10.7632 12.6548 10.7632C13.7029 10.7632 14.5521 11.6126 14.5521 12.661C14.5521 13.7094 13.7029 14.5588 12.6548 14.5588C12.1696 14.5588 4.43016 14.5637 4.43016 14.5637C4.43016 14.5637 4.43501 9.40171 4.43016 8.22953C3.5252 8.22468 1.15 8.22468 0 8.22468C0 9.67109 0.00485231 11.4524 0.00727847 13.1148L0.0145569 18.9782L6.1964 18.9903C8.61528 18.9951 11.2258 18.9976 12.6548 18.9976C16.1461 18.9976 18.9895 16.1533 18.9895 12.661C18.9895 9.16873 16.1533 6.32686 12.6645 6.32443L12.667 6.32686Z" fill="#AD343A"></path></g><defs><clipPath id="clip0_17_1476"><rect width="103" height="19" fill="white"></rect></clipPath></defs></svg> 