<?xml version="1.0" encoding="UTF-8"?> <svg xmlns="http://www.w3.org/2000/svg" width="32" height="24" viewBox="0 0 32 24" fill="none"><path fill-rule="evenodd" clip-rule="evenodd" d="M9.44152 0C8.58066 0 7.81638 0.55086 7.54416 1.36754L0.877489 21.3675C0.445802 22.6626 1.40974 24 2.77486 24H22.5585C23.4193 24 24.1836 23.4491 24.4559 22.6325L31.1225 2.63246C31.5542 1.33739 30.5903 0 29.2252 0H9.44152ZM17.1931 12.7022V20H14.3649V12.7022H12V9.85725H14.3649V7.75942C14.3649 5.32557 15.7965 4 17.8876 4C18.889 4 19.7494 4.07756 20 4.11138V6.65599L18.5506 6.65661C17.4124 6.65661 17.1931 7.21776 17.1931 8.04118V9.85725H19.9046L19.5508 12.7022H17.1931Z" fill="white"></path></svg> 