<?xml version="1.0" encoding="UTF-8"?> <svg xmlns="http://www.w3.org/2000/svg" width="32" height="24" viewBox="0 0 32 24" fill="none"><path d="M7.54415 1.36754C7.81638 0.55086 8.58066 0 9.44152 0H29.2251C30.5903 0 31.5542 1.33739 31.1225 2.63246L24.4558 22.6325C24.1836 23.4491 23.4193 24 22.5585 24H2.77485C1.40974 24 0.445798 22.6626 0.877485 21.3675L7.54415 1.36754Z" fill="#AD343A"></path><path d="M20 4H12C9.8002 4 8 5.79941 8 8V16C8 18.1998 9.8002 20 12 20H20C22.1998 20 24 18.1998 24 16V8C24 5.79941 22.1998 4 20 4ZM16 15.3332C14.1588 15.3332 12.6666 13.8404 12.6666 12C12.6666 10.1588 14.1588 8.6666 16 8.6666C17.8404 8.6666 19.3334 10.1588 19.3334 12C19.3334 13.8404 17.8404 15.3332 16 15.3332ZM20.3334 8.6666C19.7806 8.6666 19.3334 8.21879 19.3334 7.6666C19.3334 7.11441 19.7806 6.6666 20.3334 6.6666C20.8862 6.6666 21.3334 7.11441 21.3334 7.6666C21.3334 8.21879 20.8862 8.6666 20.3334 8.6666Z" fill="white"></path></svg> 