<?xml version="1.0" encoding="UTF-8"?> <svg xmlns="http://www.w3.org/2000/svg" width="32" height="24" viewBox="0 0 32 24" fill="none"><path fill-rule="evenodd" clip-rule="evenodd" d="M9.44152 0C8.58066 0 7.81638 0.55086 7.54416 1.36754L0.877489 21.3675C0.445802 22.6626 1.40974 24 2.77486 24H22.5585C23.4193 24 24.1836 23.4491 24.4559 22.6325L31.1225 2.63246C31.5542 1.33739 30.5903 0 29.2252 0H9.44152ZM12 4H20C22.1998 4 24 5.79941 24 8V16C24 18.1998 22.1998 20 20 20H12C9.8002 20 8 18.1998 8 16V8C8 5.79941 9.8002 4 12 4ZM12.6666 12C12.6666 13.8404 14.1588 15.3332 16 15.3332C17.8404 15.3332 19.3334 13.8404 19.3334 12C19.3334 10.1588 17.8404 8.6666 16 8.6666C14.1588 8.6666 12.6666 10.1588 12.6666 12ZM19.3334 7.6666C19.3334 8.21879 19.7806 8.6666 20.3334 8.6666C20.8862 8.6666 21.3334 8.21879 21.3334 7.6666C21.3334 7.11441 20.8862 6.6666 20.3334 6.6666C19.7806 6.6666 19.3334 7.11441 19.3334 7.6666Z" fill="white"></path></svg> 